<svg width="102" height="40" viewBox="0 0 102 40" fill="none" xmlns="http://www.w3.org/2000/svg">
<rect x="0.427734" width="101" height="40" rx="8" fill="#DAFFC9"/>
<path d="M11.5472 15.6373H18.4211V15.8273L14.5524 26H12.428V25.9136L15.7614 17.3472H9.54375V13.9102H11.5472V15.6373ZM20.1227 15.6373H22.1262V21.4922L20.1227 21.8204V15.6373ZM29.3772 15.6373C32.8315 15.6373 34.4377 17.1744 34.4377 20.6287V26H32.4342V20.6287C32.4342 18.4352 31.4843 17.3472 29.3772 17.3472H26.7002V26H24.6968V15.6373H29.3772ZM42.4546 15.6373C45.9952 15.6373 47.4805 17.1054 47.4805 20.6632V26H45.4771V20.6632C45.4771 18.4007 44.579 17.3472 42.4201 17.3472H40.2612V23.5475C40.2612 25.3092 39.2594 26.1036 37.9123 26.1036C37.2733 26.1036 36.3579 25.9827 35.857 25.7927L36.1334 24.2211C36.4615 24.3247 36.8069 24.4111 37.2733 24.4111C37.9987 24.4111 38.275 23.9793 38.275 22.9775V17.3472H36.8588V15.6373H42.4546ZM49.4693 26V24.2902H52.1291V19.2297C52.1291 17.9344 51.7837 17.3472 50.7301 17.3472H49.832V15.6373H51.3346C53.3381 15.6373 54.1325 16.6563 54.1325 18.6943V26H49.4693ZM63.9072 15.6373V26H61.9038V15.6373H63.9072ZM73.7265 22.494L76.4208 25.9136V26H74.1929L69.8578 20.4732C68.6488 21.2159 68.0789 22.753 68.1652 26H66.1618C66.0754 21.9413 66.9908 20.1105 68.8215 19.1434L66.1445 15.7237V15.6373H68.3552L72.6903 21.1641C73.8993 20.4387 74.4865 18.9016 74.4001 15.6373H76.4036C76.4899 19.7133 75.5573 21.5268 73.7265 22.494ZM80.7432 15.6373V26H78.7397V15.6373H80.7432ZM91.6333 24.2902H93.0668V26H83.015V24.2902H89.6298V20.5941C89.6298 18.5216 88.7145 17.1399 86.711 17.1399C85.502 17.1399 84.4312 17.5544 83.4468 18.0898L82.7905 16.6045C84.1376 15.81 85.5711 15.4301 87.0219 15.4301C90.3034 15.4301 91.6333 17.2953 91.6333 20.456V24.2902Z" fill="#376720"/>
</svg>
