<svg width="30" height="19" viewBox="0 0 30 19" fill="none" xmlns="http://www.w3.org/2000/svg">
<g id="Frame 1019">
<circle id="Ellipse 54" cx="13.3845" cy="9.62229" r="9.37619" fill="#9EDA82"/>
<g id="Vector 21">
<path d="M16.3218 4.54642V3.97048L22.7549 0.246094L29.3429 3.97048V4.54642L26.107 6.38942L22.8711 8.23241L16.3218 4.54642Z" fill="#265B1F"/>
<path d="M16.3218 3.97048V4.54642L22.8711 8.23241M16.3218 3.97048L22.8711 7.69487M16.3218 3.97048L22.7549 0.246094L29.3429 3.97048M22.8711 8.23241V7.69487M22.8711 8.23241L26.107 6.38942L29.3429 4.54642V3.97048M22.8711 7.69487L29.3429 3.97048" stroke="#265B1F" stroke-width="0.347231"/>
</g>
<g id="Vector 58">
<path d="M8.50781 9.2349V8.65896L14.9409 4.93457L21.529 8.65896V9.2349L18.2931 11.0779L15.0572 12.9209L8.50781 9.2349Z" fill="#265B1F"/>
<path d="M8.50781 8.65896V9.2349L15.0572 12.9209M8.50781 8.65896L15.0572 12.3833M8.50781 8.65896L14.9409 4.93457L21.529 8.65896M15.0572 12.9209V12.3833M15.0572 12.9209L18.2931 11.0779L21.529 9.2349V8.65896M15.0572 12.3833L21.529 8.65896" stroke="#265B1F" stroke-width="0.347231"/>
</g>
<g id="Vector 59">
<path d="M0.349121 14.0948V13.5188L6.7822 9.79443L13.3703 13.5188V14.0948L10.1344 15.9378L6.89846 17.7808L0.349121 14.0948Z" fill="#265B1F"/>
<path d="M0.349121 13.5188V14.0948L6.89846 17.7808M0.349121 13.5188L6.89846 17.2432M0.349121 13.5188L6.7822 9.79443L13.3703 13.5188M6.89846 17.7808V17.2432M6.89846 17.7808L10.1344 15.9378L13.3703 14.0948V13.5188M6.89846 17.2432L13.3703 13.5188" stroke="#265B1F" stroke-width="0.347231"/>
</g>
</g>
</svg>
